:SAMPLES-PER-SECOND 30
:FULLY-SPECIFIED
:DEGREES
109
root  -1.26084 39.9254 2.7432 162.692 -67.9429 -175.646
RightUpLeg  0.70556 -9.12877 -4.71816
RightLeg  19.992 7.93488 2.98509
RightFoot  -5.50531 -0.703489 13.0131
RightToes  -3.1126e-008 1.75238e-005 3.56266e-009
Spine  3.39767 1.22094 -6.35122
Spine1  27.0364 4.39703 -8.47747
HEad  -29.2608 -28.9723 13.5155
LeftShoulder1  2.21194 -4.73683 -20.4204
LeftArm  -44.7385 30.3131 -52.7643
LeftForeArm  70.6368 -10.5637 0.447967
LeftHand  -0.66302 -0.39025 13.3864
RightShoulder  1.16889 2.84852 11.277
RightArm  -60.0609 -9.51179 9.21578
RightForeArm  32.9658 73.0439 36.7647
RightHand  -0.135634 -0.569971 -2.995
LeftUpLeg  7.91279 11.3409 3.23806
LeftLeg  18.6011 23.9257 5.70267
LeftFoot  -11.418 0.0685095 -0.0917079
LeftToes  4.78349e-008 1.46828e-008 1.33736e-009
110
root  -1.29007 40.0205 2.6191 161.38 -69.077 -174.077
RightUpLeg  1.17674 -9.73519 -4.29063
RightLeg  19.1509 7.406 2.64952
RightFoot  -4.55956 -0.816548 13.1884
RightToes  -3.1126e-008 1.75238e-005 3.56266e-009
Spine  2.75449 1.25552 -6.49639
Spine1  27.8138 4.54233 -8.52058
HEad  -27.0952 -30.1511 11.3709
LeftShoulder1  2.10406 -4.3702 -20.2813
LeftArm  -43.7329 29.6015 -51.0616
LeftForeArm  71.292 -10.9111 0.145718
LeftHand  -0.664112 -0.697318 12.8028
RightShoulder  1.07418 2.32011 11.3195
RightArm  -58.3092 -13.446 7.9336
RightForeArm  47.2162 76.821 50.8514
RightHand  0.251357 -0.832862 6.07108
LeftUpLeg  8.04433 9.63208 3.31348
LeftLeg  17.7287 24.387 5.56149
LeftFoot  -10.8879 0.0663057 -0.228726
LeftToes  4.78349e-008 1.46828e-008 1.33736e-009
111
root  -1.30962 40.1568 2.47748 159.499 -70.1929 -171.636
RightUpLeg  1.40097 -10.6382 -3.63381
RightLeg  18.1445 7.12394 2.40007
RightFoot  -3.09548 -1.01488 13.7259
RightToes  -3.1126e-008 1.75238e-005 3.56266e-009
Spine  2.51236 1.08896 -6.8032
Spine1  27.1883 4.27015 -8.32942
HEad  -25.0185 -31.5548 9.44647
LeftShoulder1  1.96106 -4.04301 -19.5015
LeftArm  -44.0215 29.3035 -50.7696
LeftForeArm  70.9593 -11.7476 0.180007
LeftHand  -0.597695 -1.31316 10.4867
RightShoulder  1.1311 2.56917 11.5215
RightArm  -58.1402 -16.125 7.10292
RightForeArm  59.4108 78.7659 70.2986
RightHand  0.944103 1.51154 15.6626
LeftUpLeg  8.04362 8.02362 3.64714
LeftLeg  16.4532 24.6371 5.31523
LeftFoot  -10.1282 0.0653452 -0.420594
LeftToes  4.78349e-008 1.46828e-008 1.33736e-009
112
root  -1.34099 40.2751 2.33918 157.684 -71.2079 -169.228
RightUpLeg  1.48228 -11.8524 -3.11556
RightLeg  17.3649 7.09103 2.28035
RightFoot  -1.85353 -1.18912 14.1119
RightToes  -3.1126e-008 1.75238e-005 3.56266e-009
Spine  2.91544 1.04469 -7.62736
Spine1  25.1684 3.64351 -7.40248
HEad  -21.8344 -31.6311 7.7577
LeftShoulder1  1.94399 -4.07347 -19.1386
LeftArm  -44.7006 28.8422 -50.5708
LeftForeArm  69.248 -11.4954 0.460268
LeftHand  -0.497888 -1.37443 8.71515
RightShoulder  1.10811 2.48252 11.388
RightArm  -57.858 -16.9397 6.45489
RightForeArm  59.551 78.734 85.8817
RightHand  1.47134 3.10058 19.6999
LeftUpLeg  7.96043 6.88766 4.00854
LeftLeg  15.2961 24.5082 5.09159
LeftFoot  -9.49582 0.0683369 -0.70431
LeftToes  4.78349e-008 1.46828e-008 1.33736e-009
113
root  -1.38443 40.3655 2.23103 156.068 -71.8029 -167.084
RightUpLeg  1.4329 -13.0295 -2.70768
RightLeg  16.8796 7.52556 2.36164
RightFoot  -0.797351 -1.35756 14.5761
RightToes  -3.1126e-008 1.75238e-005 3.56266e-009
Spine  2.75536 0.925325 -7.77559
Spine1  24.1276 3.40578 -7.33908
HEad  -20.0359 -32.1005 6.82714
LeftShoulder1  1.87792 -4.02109 -18.3921
LeftArm  -44.8262 27.3692 -50.6261
LeftForeArm  67.9659 -10.9676 0.636414
LeftHand  -0.4307 -1.81191 7.12629
RightShoulder  1.20188 2.84553 11.8619
RightArm  -59.8588 -15.6183 5.98948
RightForeArm  50.9836 78.2462 91.0097
RightHand  1.50257 4.25333 17.7363
LeftUpLeg  7.86266 6.31771 4.41577
LeftLeg  14.4039 24.2157 4.96373
LeftFoot  -9.02779 0.0738469 -0.971408
LeftToes  4.78349e-008 1.46828e-008 1.33736e-009
114
root  -1.41707 40.4101 2.16202 155.101 -71.8825 -165.869
RightUpLeg  1.45309 -13.8454 -2.52582
RightLeg  16.6259 8.28297 2.58043
RightFoot  -0.195714 -1.51107 15.391
RightToes  -3.1126e-008 1.75238e-005 3.56266e-009
Spine  2.9183 1.20561 -7.76733
Spine1  22.7374 3.53197 -7.19805
HEad  -17.5445 -32.4288 5.52288
LeftShoulder1  1.93312 -4.34784 -18.0255
LeftArm  -44.6031 25.3147 -50.5027
LeftForeArm  67.9067 -10.3214 0.917405
LeftHand  -0.389338 -1.94183 6.34009
RightShoulder  1.20941 2.97787 11.5553
RightArm  -64.0501 -13.2598 6.75372
RightForeArm  43.0436 78.1074 86.7915
RightHand  1.04062 4.81847 11.4644
LeftUpLeg  7.90299 6.06242 4.69259
LeftLeg  13.9497 24.2114 5.03642
LeftFoot  -8.83647 0.080447 -1.26151
LeftToes  4.78349e-008 1.46828e-008 1.33736e-009
115
root  -1.47581 40.4229 2.11194 154.058 -71.9654 -164.629
RightUpLeg  1.65096 -14.7143 -2.38832
RightLeg  16.3504 9.00254 2.79186
RightFoot  -0.134722 -1.5599 15.7982
RightToes  -3.1126e-008 1.75238e-005 3.56266e-009
Spine  2.81835 1.36984 -6.89149
Spine1  21.7838 4.00016 -8.05487
HEad  -15.2035 -33.1871 4.7886
LeftShoulder1  1.93929 -4.46326 -17.7229
LeftArm  -43.6323 22.1903 -49.8488
LeftForeArm  68.4083 -9.63414 1.02992
LeftHand  -0.325343 -1.64794 5.55067
RightShoulder  1.25099 3.22632 11.4735
RightArm  -68.0654 -10.918 7.43034
RightForeArm  32.8761 77.7308 74.0929
RightHand  0.486699 4.9024 5.18151
LeftUpLeg  7.75892 6.2227 5.12442
LeftLeg  14.1002 23.7673 5.13387
LeftFoot  -8.98119 0.0829757 -1.35148
LeftToes  4.78349e-008 1.46828e-008 1.33736e-009
116
root  -1.56308 40.4062 2.11511 153 -71.9279 -163.655
RightUpLeg  2.07197 -15.9284 -2.51645
RightLeg  16.3255 10.0146 3.14942
RightFoot  -0.243072 -1.54235 15.7661
RightToes  -3.1126e-008 1.75238e-005 3.56266e-009
Spine  2.15678 1.69322 -5.39369
Spine1  21.9626 4.85571 -9.16318
HEad  -12.2222 -34.5803 3.24458
LeftShoulder1  2.15303 -5.17598 -18.2302
LeftArm  -42.254 18.3618 -48.6888
LeftForeArm  69.9897 -9.14678 1.05995
LeftHand  -0.404326 -1.71049 6.75564
RightShoulder  1.20819 3.26651 10.6565
RightArm  -71.3988 -8.90819 8.52541
RightForeArm  22.1764 76.2335 56.835
RightHand  -0.0736243 4.78757 -1.13562
LeftUpLeg  7.73548 6.59735 5.53721
LeftLeg  14.7203 23.2113 5.33217
LeftFoot  -9.35931 0.0851832 -1.39978
LeftToes  4.78349e-008 1.46828e-008 1.33736e-009
117
root  -1.67161 40.3869 2.15229 152.168 -71.2932 -163.121
RightUpLeg  2.55792 -16.378 -2.45677
RightLeg  16.3726 10.6184 3.37962
RightFoot  -0.137944 -1.54136 15.6162
RightToes  -3.1126e-008 1.75238e-005 3.56266e-009
Spine  1.11172 2.29533 -3.29165
Spine1  22.7471 6.12614 -10.4369
HEad  -8.18004 -34.7011 1.17597
LeftShoulder1  2.21101 -5.15565 -19.0155
LeftArm  -40.8058 12.9686 -47.609
LeftForeArm  72.0088 -7.72076 1.37669
LeftHand  -0.573869 -2.4462 8.7144
RightShoulder  1.21791 3.58704 9.89317
RightArm  -73.7976 -7.5827 9.34327
RightForeArm  17.2365 73.7275 43.1119
RightHand  -0.421507 4.78223 -5.13032
LeftUpLeg  8.12517 7.17296 6.04705
LeftLeg  15.2248 23.0901 5.51528
LeftFoot  -9.75013 0.0742992 -1.23633
LeftToes  4.78349e-008 1.46828e-008 1.33736e-009
118
root  -1.79623 40.3769 2.19574 151.007 -70.879 -162.438
RightUpLeg  3.30042 -16.752 -2.4631
RightLeg  16.3501 10.8538 3.47229
RightFoot  0.00675602 -1.5499 15.5117
RightToes  -3.1126e-008 1.75238e-005 3.56266e-009
Spine  0.085859 2.79267 -1.04238
Spine1  23.9336 7.4142 -12.0506
HEad  -3.30468 -35.5054 -1.73901
LeftShoulder1  2.10151 -4.76888 -18.8736
LeftArm  -39.5308 7.77444 -48.1223
LeftForeArm  73.2212 -7.4608 1.48277
LeftHand  -0.649301 -2.19933 10.1431
RightShoulder  1.17869 3.44891 9.64961
RightArm  -74.4127 -6.78258 10.107
RightForeArm  18.0248 70.7726 33.3087
RightHand  -0.511609 4.28763 -6.42601
LeftUpLeg  8.78155 7.46836 6.41961
LeftLeg  15.5077 22.9976 5.74497
LeftFoot  -10.0386 0.0747471 -1.24085
LeftToes  4.78349e-008 1.46828e-008 1.33736e-009
119
root  -1.92407 40.3693 2.2284 150.186 -70.6702 -162.213
RightUpLeg  4.20305 -16.7772 -2.59893
RightLeg  16.237 10.6923 3.39255
RightFoot  -0.0231267 -1.51188 15.1748
RightToes  -3.1126e-008 1.75238e-005 3.56266e-009
Spine  -0.760137 3.28094 -0.117309
Spine1  25.2365 8.14736 -12.3457
HEad  -0.974198 -35.4967 -3.11181
LeftShoulder1  2.0503 -4.53357 -18.989
LeftArm  -37.601 4.07539 -48.9669
LeftForeArm  71.7264 -9.31039 0.312728
LeftHand  -0.586357 -1.2937 10.3203
RightShoulder  1.18742 3.60236 9.37595
RightArm  -72.658 -7.42968 10.2631
RightForeArm  24.662 68.7614 27.8378
RightHand  -0.415988 3.2368 -5.9001
LeftUpLeg  9.73495 7.36553 6.48497
LeftLeg  15.3483 23.2221 5.85236
LeftFoot  -10.1281 0.0692452 -1.14478
LeftToes  4.78349e-008 1.46828e-008 1.33736e-009
120
root  -2.06146 40.3891 2.2369 149.396 -70.8934 -161.726
RightUpLeg  4.98871 -16.7332 -2.70311
RightLeg  15.8507 10.3675 3.27726
RightFoot  0.169499 -1.44988 14.3281
RightToes  -3.1126e-008 1.75238e-005 3.56266e-009
Spine  -1.73499 3.57372 -0.6472
Spine1  26.2902 7.9983 -10.9533
HEad  0.200499 -35.4435 -3.91633
LeftShoulder1  2.10509 -4.56722 -19.6015
LeftArm  -35.6456 1.7528 -49.7387
LeftForeArm  69.2149 -11.8986 -1.13175
LeftHand  -0.68666 -1.95789 11.0398
RightShoulder  1.2112 3.7484 9.36688
RightArm  -69.4584 -8.08373 9.56436
RightForeArm  36.9129 68.7343 25.7695
RightHand  -0.0957883 1.38994 -1.33284
LeftUpLeg  10.4839 7.02685 6.40238
LeftLeg  14.8258 23.3245 5.79735
LeftFoot  -10.0632 0.0756231 -1.22533
LeftToes  4.78349e-008 1.46828e-008 1.33736e-009
121
root  -2.21392 40.4185 2.25775 149.735 -71.0736 -161.856
RightUpLeg  4.85287 -15.9793 -2.59058
RightLeg  15.8175 9.41153 2.95162
RightFoot  0.47621 -1.42551 13.7434
RightToes  -3.1126e-008 1.75238e-005 3.56266e-009
Spine  -3.29399 3.61909 -1.576
Spine1  27.1668 7.56205 -9.51106
HEad  0.792827 -35.4748 -4.53135
LeftShoulder1  2.21707 -4.9049 -19.911
LeftArm  -31.9353 1.19539 -50.5899
LeftForeArm  63.3856 -15.7322 -2.7094
LeftHand  -0.687052 -1.56963 11.6265
RightShoulder  1.2557 3.79558 9.92444
RightArm  -65.4812 -7.72674 8.35962
RightForeArm  47.012 70.3449 26.9166
RightHand  0.333388 -1.01048 9.27078
LeftUpLeg  10.8095 6.60592 5.99419
LeftLeg  14.0331 23.7824 5.61664
LeftFoot  -9.90441 0.0749347 -1.18809
LeftToes  4.78349e-008 1.46828e-008 1.33736e-009
122
root  -2.41087 40.4692 2.28435 148.522 -71.118 -160.355
RightUpLeg  5.01807 -15.2871 -2.04255
RightLeg  15.3269 8.41994 2.63172
RightFoot  1.10057 -1.50171 13.7845
RightToes  -3.1126e-008 1.75238e-005 3.56266e-009
Spine  -4.29077 3.35432 -1.76159
Spine1  26.8207 6.77004 -8.5243
HEad  0.978558 -35.1892 -5.02166
LeftShoulder1  2.26466 -5.07071 -19.9593
LeftArm  -26.0275 1.43139 -51.3764
LeftForeArm  56.0093 -18.9383 -3.26937
LeftHand  -0.749955 -1.4741 12.8337
RightShoulder  1.35986 4.24736 10.3077
RightArm  -61.6008 -7.26631 7.16442
RightForeArm  46.7064 72.1287 30.7787
RightHand  0.481333 -2.55128 20.268
LeftUpLeg  11.2211 6.57563 6.35722
LeftLeg  13.165 23.5758 5.25008
LeftFoot  -9.82396 0.0721389 -1.1102
LeftToes  4.78349e-008 1.46828e-008 1.33736e-009
123
root  -2.61761 40.5205 2.36254 148.535 -70.9397 -159.641
RightUpLeg  4.45409 -15.338 -1.83005
RightLeg  15.2803 8.54219 2.64725
RightFoot  1.76925 -1.59866 13.9538
RightToes  -3.1126e-008 1.75238e-005 3.56266e-009
Spine  -5.83899 3.11589 -1.99506
Spine1  26.4325 5.97649 -7.41471
HEad  1.4688 -34.8814 -5.60727
LeftShoulder1  2.23776 -4.96695 -19.9655
LeftArm  -21.6971 1.4878 -52.5794
LeftForeArm  52.2467 -21.1237 -2.97936
LeftHand  -0.82353 -2.05548 13.0241
RightShoulder  1.40621 4.4044 10.5735
RightArm  -59.0766 -5.38057 6.26731
RightForeArm  40.1119 72.9331 34.4944
RightHand  0.584992 -2.96471 28.3595
LeftUpLeg  11.1676 6.30943 6.21384
LeftLeg  12.2698 24.0843 5.10063
LeftFoot  -9.59681 0.074518 -1.10492
LeftToes  4.78349e-008 1.46828e-008 1.33736e-009
